<svg width="38" height="39" viewBox="0 0 38 39" fill="none" xmlns="http://www.w3.org/2000/svg">
<rect y="0.5" width="38" height="38" rx="4" fill="#FDD4B2"/>
<path d="M26.1497 15.8338C26.1612 15.9937 26.1612 16.1536 26.1612 16.3135C26.1612 21.1904 22.4492 26.8097 15.665 26.8097C13.5749 26.8097 11.6333 26.2043 10 25.1536C10.297 25.1879 10.5825 25.1993 10.8909 25.1993C12.6154 25.1993 14.203 24.6168 15.4708 23.6232C13.849 23.5889 12.4898 22.5267 12.0216 21.0648C12.25 21.099 12.4784 21.1219 12.7183 21.1219C13.0495 21.1219 13.3807 21.0762 13.6891 20.9963C11.9987 20.6536 10.7309 19.1688 10.7309 17.3757V17.33C11.222 17.6041 11.7931 17.7755 12.3984 17.7983C11.4048 17.1358 10.7538 16.0051 10.7538 14.7259C10.7538 14.0407 10.9365 13.4125 11.2563 12.8643C13.0723 15.1028 15.802 16.5647 18.8629 16.7247C18.8058 16.4506 18.7715 16.1651 18.7715 15.8795C18.7715 13.8465 20.4162 12.1904 22.4606 12.1904C23.5228 12.1904 24.4822 12.6359 25.156 13.3554C25.9898 13.1955 26.7893 12.8871 27.4974 12.4645C27.2233 13.3212 26.6408 14.0407 25.8756 14.4975C26.618 14.4176 27.3375 14.212 27.9999 13.9265C27.4975 14.6574 26.8693 15.3084 26.1497 15.8338Z" fill="#755B4D"/>
</svg>
